<svg xmlns="http://www.w3.org/2000/svg" xmlns:xlink="http://www.w3.org/1999/xlink" viewBox="0 0 734.21 155.89"><defs><style>.cls-1{fill:#8f7000;}.cls-2{fill:#003566;}.cls-3{fill:#003054;}.cls-4{fill:#7a5d00;}.cls-5{fill:#8c6700;}.cls-6{fill:url(#linear-gradient);}.cls-7{fill:#00509d;}</style><linearGradient id="linear-gradient" x1="-362.11" x2="-181.91" gradientUnits="userSpaceOnUse"><stop offset="0" stop-color="#cca000"/><stop offset="1" stop-color="#ffd60a"/></linearGradient></defs><g id="Layer_1" data-name="Layer 1"><path class="cls-1" d="M-215.43-5.14l40.18-57.81h-29.49L-249.94,4v-66.9h-63.14l-39,107.8V62.17h54V83h48.17V44.51l18.55-26.69L-200.08,83h28.17ZM-323.79,39.2l25.68-72.3V39.2Z" transform="translate(362.11 72.95)"/><polygon class="cls-2" points="322.73 128.04 299.67 14.5 287.73 14.5 264.67 128.03 244.02 14.5 227.39 14.5 256.01 151.39 273.78 151.39 294.27 52.91 313.7 151.39 331.39 151.39 360.1 14.5 343.47 14.5 322.73 128.04"/><polygon class="cls-2" points="373.64 151.39 447.91 151.39 447.91 136.96 389 136.96 389 90.63 440.49 90.63 440.49 76.19 389 76.19 389 28.93 447.91 28.93 447.91 14.5 373.64 14.5 373.64 151.39"/><polygon class="cls-2" points="466.32 151.39 540.6 151.39 540.6 136.96 481.68 136.96 481.68 90.63 533.17 90.63 533.17 76.19 481.68 76.19 481.68 28.93 540.6 28.93 540.6 14.5 466.32 14.5 466.32 151.39"/><polygon class="cls-3" points="644.95 14.5 626.46 14.5 574.36 91.6 574.36 14.5 559 14.5 559 151.39 574.36 151.39 574.36 116.05 598.13 81.86 631.55 151.39 649.66 151.39 608.17 67.42 644.95 14.5"/><path class="cls-2" d="M330.59,16.09l.13.06a124.81,124.81,0,0,1,14.17,5.42,23.27,23.27,0,0,1,8.63,6.94,18.06,18.06,0,0,1,3.32,11.18v3.89c0,7.08-2.28,12.53-6.78,16.21s-11.27,5.62-20,5.62c-7,0-12.85-1.54-17.55-4.58s-7.91-7.92-9.69-14.63l-.28-1.06L288,50.57l.22.86a37.14,37.14,0,0,0,8.25,16.25A33.88,33.88,0,0,0,310.76,77a59.64,59.64,0,0,0,19.34,2.89c8.94,0,16.63-1.37,22.85-4.07a30.11,30.11,0,0,0,14.33-12.33c3.2-5.43,4.83-12.14,4.83-19.95V39.13c0-7.22-1.59-13.24-4.72-17.91a33.21,33.21,0,0,0-11.72-10.8,96,96,0,0,0-17.11-6.94l-.1,0a2,2,0,0,1-.59-.19,4,4,0,0,0-1.11-.35,2.46,2.46,0,0,1-.37-.18,3.23,3.23,0,0,0-1-.37,150.58,150.58,0,0,1-15.67-5.43,26.41,26.41,0,0,1-9.43-6.7c-2.45-2.77-3.69-6.45-3.69-10.94V-24c0-6.89,2.22-12.22,6.59-15.83s11-5.53,19.5-5.53c6,0,10.91,1.42,14.61,4.21s6.59,7.36,8.56,13.56l.31,1,14.39-5.11-.27-.91a43.82,43.82,0,0,0-7.55-15.42A29,29,0,0,0,350.46-57a49.57,49.57,0,0,0-17.76-2.85c-8.82,0-16.36,1.41-22.41,4.17a30.67,30.67,0,0,0-14,12.33c-3.18,5.35-4.78,12-4.78,19.85v3.34c0,7.42,1.67,13.46,5,17.94A32.55,32.55,0,0,0,308.7,8a147.21,147.21,0,0,0,18.64,7.07l2.44.63" transform="translate(362.11 72.95)"/><polyline class="cls-2" points="234.02 4.5 244.02 14.5 235.84 14.5 234.02 4.5"/><polyline class="cls-2" points="289.67 4.5 299.67 14.5 291.7 14.5 289.67 4.5"/><polyline class="cls-2" points="350.1 4.5 360.1 14.5 348 14.5 350.1 4.5"/><polygon class="cls-1" points="186.86 10 176.86 0 165.14 16.86 186.86 10"/><polygon class="cls-1" points="112.17 10 102.17 0 102.17 11.52 112.17 10"/><polyline class="cls-1" points="53.99 145.89 63.99 155.89 65.94 144.25 53.99 145.89"/><polyline class="cls-1" points="0 125.11 10 135.11 14.31 122.62 0 125.11"/><polygon class="cls-1" points="162.03 155.89 152.03 145.89 158.25 145.89 162.03 155.89"/><polyline class="cls-2" points="246.01 141.39 256.01 151.39 257.77 136.15 246.01 141.39"/><polyline class="cls-2" points="303.7 141.39 313.7 151.39 316.5 135.43 303.7 141.39"/><polyline class="cls-3" points="263.78 141.39 273.78 151.39 290.15 72.71 284.27 42.91 263.78 141.39"/><polyline class="cls-3" points="321.39 141.39 331.39 151.39 360.1 14.5 350.1 4.5 321.39 141.39"/><polyline class="cls-2" points="363.64 141.39 373.64 151.39 377.76 136.15 363.64 141.39"/><polyline class="cls-3" points="437.91 141.39 447.91 151.39 447.91 136.96 437.91 126.96 437.91 141.39"/><polyline class="cls-3" points="530.6 126.96 540.6 136.96 540.6 151.39 530.6 141.39 530.6 126.96"/><polyline class="cls-2" points="456.32 141.39 466.32 151.39 471.68 136.15 456.32 141.39"/><polyline class="cls-3" points="523.17 80.63 533.17 90.63 533.17 76.19 523.17 66.19 523.17 80.63"/><polyline class="cls-3" points="530.6 18.93 540.6 28.93 540.6 14.5 530.6 4.5 530.6 18.93"/><polyline class="cls-3" points="471.68 18.93 481.68 28.93 481.68 66.19 471.68 66.19 471.68 18.93"/><polyline class="cls-3" points="471.68 80.63 481.68 90.63 481.68 126.96 471.68 126.96 471.68 80.63"/><polyline class="cls-3" points="430.49 80.63 440.49 90.63 440.49 76.19 430.49 66.19 430.49 80.63"/><polyline class="cls-3" points="379 80.63 389 90.63 389 126.96 379 126.96 379 80.63"/><polyline class="cls-3" points="312.73 118.04 316.5 97.39 299.67 14.5 289.67 4.5 312.73 118.04"/><polyline class="cls-3" points="234.02 4.5 244.02 14.5 258.98 96.78 254.67 118.03 234.02 4.5"/><polyline class="cls-3" points="437.91 18.93 447.91 28.93 447.91 14.5 437.91 4.5 437.91 18.93"/><polyline class="cls-3" points="379 18.93 389 28.93 389 66.19 379 66.19 379 18.93"/><polyline class="cls-4" points="180.2 145.89 190.2 155.89 146.68 67.8 136.68 57.8 180.2 145.89"/><polyline class="cls-5" points="102.17 107.46 112.17 117.46 112.17 155.89 102.17 144.92 102.17 107.46"/><polyline class="cls-4" points="102.17 107.46 112.17 117.46 127.65 95.18 120.72 80.77 102.17 107.46"/><polyline class="cls-4" points="28.32 102.14 41.87 102.14 54.23 67.33 54.5 28.42 28.32 102.14"/><path class="cls-2" d="M186.9,68.45" transform="translate(362.11 72.95)"/><polyline class="cls-2" points="549 141.39 559 151.39 574.36 151.39 564.36 141.39 561.68 136.83 549 139.78 549 141.39"/><path class="cls-2" d="M259.45,68.45" transform="translate(362.11 72.95)"/><polyline class="cls-2" points="621.55 141.39 631.55 151.39 649.66 151.39 639.66 141.39 638.54 139.14 620.97 140.18"/><polygon class="cls-2" points="608.17 67.42 598.17 57.42 634.95 4.5 644.95 14.5 608.17 67.42"/><polyline class="cls-2" points="564.36 106.05 574.36 116.05 595.06 86.27 588.13 71.86 564.36 106.05"/><polyline class="cls-3" points="564.36 4.5 574.36 14.5 553.62 28.93 564.36 4.5"/><polyline class="cls-2" points="654.69 108.08 664.69 118.08 654.69 125.96 654.97 109.15"/><path class="cls-2" d="M278,40.57S282.24,66.36,310.76,77" transform="translate(362.11 72.95)"/><polyline class="cls-2" points="708.29 36.29 718.29 46.29 723.35 33.87 715.32 31.23"/><polyline class="cls-3" points="722.67 31.18 732.67 41.17 718.29 46.29 708.29 36.29 722.67 31.18"/><path class="cls-2" d="M370.57-31.77s-7.62-31.06-36.11-37" transform="translate(362.11 72.95)"/><path class="cls-2" d="M330.05-6S362.91,2.08,370.58,28" transform="translate(362.11 72.95)"/><polyline class="cls-2" points="686.26 86.96 696.57 90.36 697.73 88.66 687.12 85.3"/><path class="cls-2" d="M281.74-25.71s1,26.79,33.95,36.69" transform="translate(362.11 72.95)"/></g><g id="Layer_2" data-name="Layer 2"><path class="cls-6" d="M-225.43-15.14l40.18-57.81h-29.49L-259.94-6v-66.9h-63.14l-39,107.8V52.17h54V73h48.17V34.51l18.55-26.69L-210.08,73h28.17ZM-333.79,29.2l26.18-73.73-.5,73.73Z" transform="translate(362.11 72.95)"/><polygon class="cls-7" points="312.73 118.04 289.67 4.5 277.73 4.5 254.67 118.03 234.02 4.5 217.39 4.5 246.01 141.39 263.78 141.39 284.27 42.91 303.7 141.39 321.39 141.39 350.1 4.5 333.47 4.5 312.73 118.04"/><polygon class="cls-7" points="363.64 141.39 437.91 141.39 437.91 126.96 379 126.96 379 80.63 430.49 80.63 430.49 66.19 379 66.19 379 18.93 437.91 18.93 437.91 4.5 363.64 4.5 363.64 141.39"/><polygon class="cls-7" points="456.32 141.39 530.6 141.39 530.6 126.96 471.68 126.96 471.68 80.63 523.17 80.63 523.17 66.19 471.68 66.19 471.68 18.93 530.6 18.93 530.6 4.5 456.32 4.5 456.32 141.39"/><polygon class="cls-7" points="634.95 4.5 616.46 4.5 564.36 81.6 564.36 4.5 549 4.5 549 141.39 564.36 141.39 564.36 106.05 588.13 71.86 621.55 141.39 639.66 141.39 598.17 57.42 634.95 4.5"/><path class="cls-7" d="M357.39,11.22A33.21,33.21,0,0,0,345.67.42a96,96,0,0,0-17.11-6.94l-.1,0a2,2,0,0,1-.59-.19,4,4,0,0,0-1.11-.35,2.46,2.46,0,0,1-.37-.18,3.23,3.23,0,0,0-1-.37,150.58,150.58,0,0,1-15.67-5.43,26.41,26.41,0,0,1-9.43-6.7c-2.45-2.77-3.69-6.45-3.69-10.94V-34c0-6.89,2.22-12.22,6.59-15.83s11-5.53,19.5-5.53c6,0,10.91,1.42,14.61,4.21s6.59,7.36,8.56,13.56l.31,1,14.39-5.11-.27-.91a43.82,43.82,0,0,0-7.55-15.42A29,29,0,0,0,340.46-67a49.57,49.57,0,0,0-17.76-2.85c-8.82,0-16.36,1.41-22.41,4.17a30.67,30.67,0,0,0-14,12.33c-3.18,5.35-4.78,12-4.78,19.85v3.34c0,7.42,1.67,13.46,5,17.94A32.55,32.55,0,0,0,298.7-2a147.21,147.21,0,0,0,18.64,7.07l2.44.63a1.51,1.51,0,0,1,.31.14c.19.11.35.2.5.27l.13.06a124.81,124.81,0,0,1,14.17,5.42,23.27,23.27,0,0,1,8.63,6.94,18.06,18.06,0,0,1,3.32,11.18v3.89c0,7.08-2.28,12.53-6.78,16.21s-11.27,5.62-20,5.62c-7,0-12.85-1.54-17.55-4.58s-7.91-7.92-9.69-14.63l-.28-1.06L278,40.57l.22.86a37.14,37.14,0,0,0,8.25,16.25A33.88,33.88,0,0,0,300.76,67a59.64,59.64,0,0,0,19.34,2.89c8.94,0,16.63-1.37,22.85-4.07a30.11,30.11,0,0,0,14.33-12.33c3.2-5.43,4.83-12.14,4.83-19.95V29.13C362.11,21.91,360.52,15.89,357.39,11.22Z" transform="translate(362.11 72.95)"/></g></svg>